PathFileType	4	(X/Y/Z)	Patient4_TMGait_0pt6_02_right_34.trc.trc
DataRate	CameraRate	NumFrames	NumMarkers	Units	OrigDataRate	OrigDataStartFrame	OrigNumFrames
81.871345029240	81.871345029240	6	33	mm	81.871345029240	18	       141
Frame#	Time	Sacral			L.Shoulder			Chest			R.Shoulder			Neck			R.ASIS			L.ASIS			R.Thigh.Superior			R.Thigh.Lateral			R.Thigh.Inferior			R.Patella			L.Thigh.Superior			L.Thigh.Lateral			L.Thigh.Inferior			L.Patella			L.Shank.Superior			L.Shank.Lateral			L.Shank.Inferior			R.Shank.Superior			R.Shank.Lateral			R.Shank.Inferior			R.Heel			R.Midfoot.Superior			R.Midfoot.Lateral			R.Toe			L.Heel			L.Midfoot.Lateral			L.Midfoot.Superior			L.Toe			L.Elbow			L.Wrist			R.Elbow			R.Wrist			
		X1	Y1	Z1	X2	Y2	Z2	X3	Y3	Z3	X4	Y4	Z4	X5	Y5	Z5	X6	Y6	Z6	X7	Y7	Z7	X8	Y8	Z8	X9	Y9	Z9	X10	Y10	Z10	X11	Y11	Z11	X12	Y12	Z12	X13	Y13	Z13	X14	Y14	Z14	X15	Y15	Z15	X16	Y16	Z16	X17	Y17	Z17	X18	Y18	Z18	X19	Y19	Z19	X20	Y20	Z20	X21	Y21	Z21	X22	Y22	Z22	X23	Y23	Z23	X24	Y24	Z24	X25	Y25	Z25	X26	Y26	Z26	X27	Y27	Z27	X28	Y28	Z28	X29	Y29	Z29	X30	Y30	Z30	X31	Y31	Z31	X32	Y32	Z32	X33	Y33	Z33	

18	41.107642857143	782.688777001000	1010.666513092767	416.213634921254	1000.704402454242	1431.392155726973	245.279626436463	1085.018256103273	1351.777833928121	411.052844025845	995.506727399548	1433.075311054926	577.412645424296	991.110453719799	1490.360891744225	396.771742095177	1002.028851572781	942.967156870746	544.781810681750	998.849957931873	954.606199567951	268.808493760750	1079.865200560688	777.471918362276	514.812816266766	1045.987638336170	655.873610102253	592.445709654047	1133.379419307831	619.765955589376	510.047827377880	1171.420127992323	532.570472825860	531.110069725660	1003.602683829260	729.855545081361	300.901005200090	888.222559152945	634.848121427971	239.083297711305	948.248864699064	542.185503602971	304.571545738470	933.647019740215	476.703940855079	315.335513036537	901.464550478905	410.521218106644	308.058599154124	800.372436876210	304.992944999164	261.068871069045	839.029692494384	190.600118310251	334.087481580787	1146.532572903905	444.069586970776	542.882708730749	1084.113742100111	336.304798412983	608.339650634716	1144.995869230105	243.922031069505	558.230361772209	1037.746387289367	63.534273606404	534.169453604067	1205.328291408443	127.137681329031	571.815726111672	1122.897138665785	56.332380621384	606.478337607974	1327.260594536888	82.653343267623	595.591945606548	700.214633233761	40.874100276267	383.039887846642	770.560682537650	35.899282749950	300.054950788924	855.809745144148	95.779433788491	322.552165925288	982.375718877218	39.663780587706	288.605001313080	1049.426443629442	1104.426782174882	89.085827333409	1297.062223145339	1031.593010017453	105.961085300199	830.596205451029	1133.197363291617	695.346378301761	780.907612355189	876.721104948316	706.921449506988	
19	41.119857142857	784.126411019253	1008.516385838688	418.177576767731	1000.277578192752	1429.982377239840	246.786756108091	1084.918048299763	1350.850356162363	412.529749708968	995.436923676937	1432.278345641106	578.817150721884	990.523681908032	1489.000454112802	398.109949090889	1003.589196865548	940.967436257277	546.264777249742	999.864746776540	953.553774776550	270.219766852777	1079.545701535304	773.221475301903	516.705922147975	1043.369958629345	651.706044177772	593.709913391924	1130.737646674585	615.076071919620	511.544708405706	1167.756628240674	529.077356459576	531.822102125012	1002.083753896498	728.266712653514	301.546016074578	885.213647113591	634.604049571290	239.684215046440	944.134315186981	541.147582999878	304.791390715507	928.973839923533	475.782437947780	315.334156720160	896.190613909137	410.033129544047	308.159250614398	794.201030278591	305.267559802510	261.233897356637	832.288987457409	190.454277163458	334.008900434960	1144.953392882480	440.710286849080	543.364294672267	1084.692195474113	330.926301935151	607.491652592396	1148.677415467998	240.414604832579	557.343134070326	1046.501904697876	57.292492044221	531.219742525667	1212.262763863736	125.155866681864	570.810759730697	1131.140201316104	52.184528484496	604.302542935409	1335.114314539130	83.392944101635	595.365681602549	692.829762363691	41.086732509535	382.967224244136	763.199878502864	36.000540014322	300.025035362810	848.467703802837	95.762909711050	322.514228845741	974.976747180138	39.550346190356	288.577641030586	1051.924779997712	1103.980995320680	90.626803865534	1301.748480883738	1041.206759364298	108.559599195463	825.728359832114	1136.067848471615	696.639908477428	772.493623429754	880.114022007882	707.677922756484	
20	41.132071428571	785.723655570301	1006.223543884173	420.378926543488	999.707884321340	1428.473543931898	248.414119302015	1084.821364244566	1349.889839786608	414.088791421448	995.422998667871	1431.388307440083	580.392927511359	989.833678287334	1487.551258482008	399.582980565367	1005.397882913906	938.837401792985	547.884198440374	1001.046455395948	952.395278130664	271.830621899195	1079.743071575970	769.003167476815	518.738659867268	1041.114267872846	647.480882935472	594.794201096608	1128.587410011792	610.489905411321	512.958133036280	1164.365419880032	525.337206716016	532.308660181451	1000.895949291870	726.656711468870	302.318859875254	882.597010420511	634.295154456810	240.458257861057	940.496775582340	540.055551526141	305.168400223054	924.816561574765	474.712576669048	315.495720246031	891.330981134402	409.427125242616	308.388787105448	788.306977798463	305.567904018588	261.495174172351	825.684030254058	190.279492685899	333.974902342488	1143.143372693854	437.007836327737	543.596239044868	1084.245902971984	325.749962581268	606.335335694595	1150.535747141799	236.728838421505	556.173288474652	1051.935255909420	52.200601041646	528.068325997834	1216.186405470161	122.592013550375	569.225807418101	1135.914290526193	48.523490358293	601.960822172425	1339.615711642582	82.513084576489	594.895714969039	685.449405275479	41.355387117928	382.871936830725	755.856375764099	36.130856551860	299.980204225067	841.151709920492	95.761406632735	322.477126426638	967.592448581128	39.421842579242	288.542104244069	1054.024328589824	1103.294574881806	92.396258836054	1305.546047190587	1050.121204474878	111.300200035252	821.836639606604	1138.294903121485	697.954784661816	765.604531563813	882.725017620968	708.231050562593	
21	41.144285714286	787.431621604842	1003.877730023788	422.795387207531	999.037061311268	1426.901076506277	250.166932537221	1084.752465644858	1348.920861949397	415.744033005996	995.465076075025	1430.421117281838	582.145098895028	989.081411083628	1486.053446508837	401.206081929815	1007.426617741801	936.633659834179	549.636343566325	1002.399419621550	951.177177688964	273.652307489456	1080.486241722675	764.944574977758	520.868080498444	1039.289912768938	643.330050914761	595.663375522991	1127.008676017173	606.162238365981	514.250209347218	1161.377047318508	521.495492199014	532.523460850780	1000.084538392439	725.053774704077	303.216337942295	880.425678614608	633.924434701636	241.423793046550	937.416978792608	538.912961118468	305.707864609535	921.254778328508	473.480926218649	315.836201791812	886.958300655271	408.689680444751	308.759666187235	782.751446470176	305.906510760237	261.858607795730	819.245618098413	190.084738971898	333.983371668023	1141.245073630580	433.088407030526	543.552891507520	1082.997221391405	320.869958901108	604.984145434551	1150.744293422988	232.907681893484	554.772744351436	1054.154877169724	48.194469009979	524.951531344492	1217.262716873954	119.475146634564	567.061079246809	1137.434410434207	45.348383975286	599.623295879354	1341.055987444308	80.081940430257	594.151659748362	678.075708568344	41.713834784964	382.746378115303	748.533053447375	36.295926820555	299.916418113400	833.877829342540	95.781655927193	322.427005723996	960.228881375604	39.279232956756	288.497362151861	1055.702610028176	1102.371476473846	94.385880917736	1308.489206844647	1058.236448892561	114.153035562384	818.951150134146	1139.800251319189	699.326445852185	760.269032829757	884.487006643195	708.622710037866	
22	41.156500000000	789.196235250307	1001.582647546459	425.400394449243	998.314483951354	1425.315854333616	252.049212620359	1084.739141645411	1347.979132945260	417.507723384281	995.569017726533	1429.407847663458	584.072459049251	988.320562573023	1484.562084826462	402.990614554310	1009.637338779987	934.431497104675	551.513063118595	1003.927035627996	949.964561470029	275.686937203532	1081.772738253476	761.173812682886	523.043178309500	1037.956219609938	639.403406915493	596.316490437374	1126.047644445010	602.238701698916	515.399650923680	1158.895296855871	517.708728787016	532.460126226688	999.681807547943	723.499561350227	304.230256967749	878.745982479645	633.503017086488	242.592018959008	934.974642425584	537.734998311318	306.404038378406	918.367619263655	472.086443386912	316.353761436255	883.141245324234	407.819292186036	309.272957572512	777.593392272163	306.308087958302	262.325975218782	813.007177791927	189.889519314633	334.025643720616	1139.396662069277	429.108679833247	543.248031269349	1081.205524228355	316.395911159358	603.578497132004	1149.551526359948	229.044445468553	553.218941907310	1053.453213719077	45.188815780737	522.087472291579	1215.791328817385	115.943494584153	564.391584531244	1136.083089936553	42.673002642578	597.451775025747	1339.849873769299	76.347726756543	593.144055659180	670.713962471206	42.212421902253	382.583552299955	741.233527514579	36.507527457857	299.830355051303	826.669176648308	95.831178736821	322.344365668297	952.892998635428	39.125453438652	288.442339171963	1056.934821474452	1101.225136832724	96.592758877492	1310.616087810476	1065.458226594520	117.088781769791	817.092377275888	1140.542912886152	700.789629054219	756.509490610907	885.369246814106	708.918297215256	
23	41.168714285714	790.964375484533	999.447797255902	428.163729260955	997.592488316635	1423.783996512110	254.063115378935	1084.809213874067	1347.111673786712	419.388627113986	995.745927650767	1428.395699538745	586.167629987529	987.612514080078	1483.145720837529	404.941816992955	1011.983326425162	932.322628612778	553.504044373586	1005.630931704911	948.838662444144	277.926202433345	1083.566953141990	757.817479343579	525.207316437543	1037.163524659008	635.861969037229	596.789529179217	1125.711306302029	598.846838016832	516.403067480474	1156.987398439158	514.135989940526	532.159800955581	999.704771369249	722.048514669278	305.350822509646	877.597914641290	633.049951721624	243.964857727998	933.248480594456	536.549424964120	307.240513517429	916.235141736348	470.543142452995	317.025112771335	879.945555594402	406.828769057214	309.915424401100	772.889291216702	306.811245799788	262.894552343404	807.006538079726	189.725019379277	334.086304868946	1137.717804709399	425.243506647114	542.736887591841	1079.135603229356	312.442109442906	602.271463847464	1147.251141837697	225.271982569023	551.608829039944	1050.269796708051	43.078384997487	519.646752498215	1212.178331976547	112.223938826155	561.371023433471	1132.362725019213	40.511941801868	595.579604968656	1336.488177850556	71.705745310604	591.934522954877	663.375389920368	42.921272824959	382.377725939673	733.963374663265	36.787321600387	299.719680972564	819.557474232567	95.918151851411	322.205106960854	945.592207344611	38.965289031730	288.376128655047	1057.693567058796	1099.881063659949	99.019853319644	1311.966024653961	1071.698587898298	120.079459617856	816.272521363381	1140.523540251912	702.374520748858	754.346846556708	885.379721361464	709.200161132158	
